<svg version="1" xmlns="http://www.w3.org/2000/svg" width="1365.333" height="1365.333" viewBox="0 0 1024.000000 1024.000000"><path d="M0 512v512h1024V0H0v512zm533.5-393c9.9.5 20.9 1.4 24.5 1.9 3.6.6 8.8 1.3 11.5 1.6 10.4 1.2 35.8 6.5 48 10 7.6 2.1 24.7 7.5 27 8.4 1.1.5 5.8 2.3 10.5 4.1 22.3 8.7 39.9 17.3 60.5 29.7 43.2 25.9 84.7 63.5 113.2 102.6 2.9 4 5.6 7.7 6 8.2.5.6 2.4 3.5 4.4 6.5 8.1 12.3 11.9 18.2 11.9 18.6 0 .2 1.7 3.2 3.8 6.6 6.1 10.1 20 39 23.7 49.3 1 2.7 2.2 5.4 2.7 5.9.4.6.8 1.6.8 2.4 0 .8.6 2.8 1.4 4.5 1.9 4.4 4.7 13 8.9 27.7 3.9 13.4 9.1 38.7 10.2 49 .3 3 1 8.2 1.6 11.5.8 5 3 38.2 3 45 0 1.1-.4 10.1-1 20-1.1 19.4-1.7 24.2-6.1 52.3-1.4 9.1-6.8 30.6-12 47.7-.9 3-6 17.2-7.5 21-.5 1.1-1.7 4.2-2.7 7-8.1 21.4-26.8 55.6-42.7 78.3C791.4 801.2 730 849.7 658 878.9c-4.1 1.6-8.7 3.3-10.3 3.7-1.5.3-3 1-3.3 1.5-.3.5-1.4.9-2.4.9-1.1 0-3.4.6-5.2 1.4-5.2 2.2-20.8 6.7-31.3 9.1-3.8.9-8.8 2.1-11 2.6-3.8 1-6 1.3-22 3.8-16.4 2.5-23 3.2-40 4.2-21.8 1.3-18.2 1.3-40 0-17-1-23.6-1.7-40-4.2-19.3-3-19.6-3-37.5-7.6-8.5-2.2-11.6-3.1-22.5-6.3-3.9-1.1-9.2-3-13.2-4.7-1.7-.7-3.7-1.3-4.5-1.3-.8 0-1.8-.4-2.3-.8-.6-.5-3.2-1.7-6-2.7-10.1-3.6-39-17.5-49-23.5-3.3-2-6.7-3.9-7.5-4.3-4.7-2.1-32.4-21.3-42-29.1-38.3-30.9-68.5-65.2-93-105.6-10-16.5-23.4-43.4-28.6-57.5-1-2.8-2.4-6.1-3.1-7.5-.7-1.4-1.3-3.2-1.3-4.1 0-.8-.4-1.9-.8-2.5-.4-.5-1.6-3.6-2.6-6.9-1-3.3-2.4-7.8-3.1-10-2.4-7.8-4.4-15.1-6-22-.9-3.9-2-8.6-2.5-10.5-3-11.8-6-34.2-7-53-.6-9.6-1.4-20.2-1.9-23.5-.4-3.3-.4-8.7 0-12 .5-3.3 1.3-13.9 1.9-23.5 1-18.8 4-41.2 7-53 .5-1.9 1.6-6.7 2.5-10.5 2.8-12 12.9-44.8 14.4-47 .4-.6 1.6-3.3 2.6-6 3.7-10.4 17.5-39.3 23.2-48.5 2.1-3.6 4.2-7.2 4.6-8 .4-.8 1.5-2.7 2.5-4.2.9-1.5 3.5-5.5 5.7-9 2.1-3.5 4.3-6.8 4.7-7.3.5-.6 3.8-5 7.4-10 31-42.1 73.5-80.8 115.2-105 1-.6 5.3-3.1 9.7-5.7 6.4-3.7 25.1-13 38-18.8 9.8-4.4 33-12.8 43-15.5 37.5-10.1 53-12.8 82.5-14.5 9.6-.6 20-1.5 23-1.9 3-.5 6.4-.7 7.5-.4 1.1.2 10.1.8 20 1.3z"/><path d="M475.5 157.5c-.5.3-5.9 1.1-12 2-30 4.2-61.5 12.3-80.9 20.9-3.2 1.4-6.3 2.6-6.8 2.6-1 0-35.1 16.7-39.3 19.3-1.1.7-4.3 2.5-7 4.1-8.4 4.9-18.5 11.7-30 20.2-37.7 27.9-68.5 62.2-94 104.4-5.7 9.4-22.5 42.9-22.5 44.8 0 .5-1.2 3.6-2.6 6.8-3.5 7.8-9.9 27.5-12.7 38.9-6.5 25.8-11 54.3-10.5 65.5l.3 6.5 68 .5c74.4.5 69.8.2 75.5 6.2 8.1 8.6 5.9 21.5-4.8 28.6-2.4 1.6-8.1 1.7-70.7 2.2l-68 .5-.3 6.5c-.5 11.2 4 39.7 10.5 65.5 2.8 11.4 9.2 31.1 12.7 38.9 1.4 3.2 2.6 6.3 2.6 6.9 0 .9 16.6 34.7 19.3 39.2.7 1.1 2.5 4.3 4.1 7 5.4 9.2 17.5 27 24.2 35.5 21.9 27.6 47 51.7 74.6 71.7 6.8 4.9 22.7 15.2 25.7 16.6.9.4 3 1.6 4.6 2.7 3.9 2.5 39.1 20 40.3 20 .5 0 3.6 1.2 6.8 2.6 3.3 1.5 7.3 3 8.9 3.5 1.7.4 5 1.5 7.5 2.4 13.7 5.2 44.1 12.4 60.5 14.5 3.9.5 9.9 1.4 13.5 2 3.6.6 9.7 1 13.5.8l7-.3.5-68c.5-62.6.6-68.3 2.2-70.7 8.5-13 24.1-13 32.6 0 1.6 2.4 1.7 8.1 2.2 70.7l.5 68 6.5.3c15.5.8 61-8 86-16.5 12.6-4.4 15-5.2 20-7.3 3-1.2 6.4-2.6 7.5-3 2.5-1 34.3-16.7 37-18.3 1.1-.7 4.3-2.5 7-4.1 23.6-13.7 55.7-39.3 74.6-59.4 18.2-19.3 37.4-44.6 48.5-63.7 1.6-2.7 3.4-5.9 4.1-7 1.6-2.7 17.3-34.5 18.3-37 .4-1.1 2.1-5.4 3.8-9.5 1.7-4.1 3.3-8.4 3.5-9.5.3-1.1 1.4-4.5 2.5-7.5 8.5-23.4 17.8-71.1 17-87l-.3-6.5-68-.5c-62.6-.5-68.3-.6-70.7-2.2-13-8.5-13-24.1 0-32.6 2.4-1.6 8.1-1.7 70.7-2.2l68-.5.3-6.5c.8-15.9-8.5-63.6-17-87-1.1-3-2.3-6.9-2.7-8.5-.5-1.7-2-5.6-3.5-8.9-1.4-3.2-2.6-6.3-2.6-6.9 0-.9-17-35.7-19-38.7-.5-.8-3.1-5.1-5.7-9.5-31.2-52.7-81.3-100.2-136.2-129.2-4.6-2.5-9.1-4.9-10-5.4-4.2-2.3-21.4-9.9-22.5-9.9-.6 0-1.6-.4-2.2-.9-1-1.1-4.7-2.5-20.4-7.6-13.1-4.4-15.1-5-22.5-6.8-16.1-4.1-26.5-6.3-34-7.3-1.6-.3-7.9-1.1-14-2-6-.8-13.9-1.4-17.5-1.2l-6.5.3-.5 68c-.5 62.6-.6 68.3-2.2 70.7-7.1 10.7-20 12.9-28.6 4.8-6-5.7-5.7-1.1-6.2-75.5l-.5-68-8.5-.2c-4.7-.1-8.9 0-9.5.2z"/></svg>